<?xml version="1.0" encoding="UTF-8" standalone="no"?>
<!DOCTYPE svg PUBLIC "-//W3C//DTD SVG 1.1//EN" "http://www.w3.org/Graphics/SVG/1.1/DTD/svg11.dtd">
<svg width="100%" height="100%" viewBox="0 0 512 512" version="1.1" xmlns="http://www.w3.org/2000/svg" xmlns:xlink="http://www.w3.org/1999/xlink" xml:space="preserve" xmlns:serif="http://www.serif.com/" style="fill-rule:evenodd;clip-rule:evenodd;stroke-linejoin:round;stroke-miterlimit:2;">
    <g id="path10" transform="matrix(3.727081,0,0,3.727081,-153.432959,-160.264463)">
        <path d="M140.84,85.974C134.16,71.392 135,58.507 125,52.387C147.31,50 147.11,67.12 159.2,87.119C165.361,97.328 168.496,99.232 178.461,106.253C167.578,107.367 154.971,109.007 140.84,85.975L140.84,85.974ZM78.867,137.399C85.547,151.981 84.707,164.866 94.707,170.986C72.397,173.373 72.597,156.253 60.507,136.254C54.346,126.045 51.211,124.141 41.246,117.12C52.129,116.006 64.736,114.366 78.867,137.398L78.867,137.399ZM178.22,148.83C168.121,157.794 152.825,156.66 142.49,148.953C133.406,139.753 129.263,129.432 113.983,126.91C138.071,112.112 149.866,133.94 156.384,139.548C164.912,146.402 171.059,145.98 178.22,148.83ZM41.487,74.543C51.586,65.579 66.882,66.713 77.217,74.42C86.301,83.619 90.444,93.941 105.724,96.463C81.636,111.261 69.841,89.432 63.323,83.825C54.796,76.971 48.648,77.393 41.487,74.543ZM178.54,116.431L178.54,138.985C144.82,132.081 131.08,109.935 130.754,85.005C149.507,105.213 152.138,111.815 178.54,116.431ZM41.167,106.942L41.167,84.388C74.887,91.292 88.627,113.438 88.953,138.368C70.2,118.16 67.569,111.558 41.167,106.942ZM178.4,180.29C150.068,181.22 136.276,174.536 131.05,149.65C153.663,165.399 160.503,161.993 177.631,159.739C178.367,166.503 178.4,173.493 178.4,180.29ZM41.307,43.083C69.639,42.153 83.431,48.837 88.657,73.723C66.044,57.974 59.204,61.38 42.076,63.634C41.341,56.87 41.307,49.88 41.307,43.083ZM177.52,73.365L178.277,94.974C157.627,83.971 150.027,62.899 156.997,43C164.007,59.483 164.132,66.157 177.519,73.365L177.52,73.365ZM42.187,150.008L41.43,128.399C62.08,139.402 69.68,160.474 62.71,180.373C55.7,163.89 55.575,157.216 42.188,150.008L42.187,150.008Z" style="fill:rgb(255,0,0);stroke:white;stroke-width:2.24px;"/>
    </g>
</svg>
